<svg xmlns="http://www.w3.org/2000/svg" width="112" height="112" viewBox="0 0 24 24"><path fill="#fff" d="m11.708 21.554l-2.089-2.088q-.192-.193-.096-.445t.37-.252h4.215q.273 0 .369.252t-.096.445l-2.089 2.088q-.13.13-.292.13t-.292-.13M4.616 16q-.691 0-1.153-.462T3 14.385v-8.77q0-.69.463-1.152T4.615 4h14.77q.69 0 1.152.463T21 5.616v8.769q0 .69-.463 1.153T19.385 16zM9 13.77h6q.31 0 .54-.221q.23-.22.23-.549q0-.31-.23-.54t-.54-.23H9q-.31 0-.54.221q-.23.22-.23.549q0 .31.23.54t.54.23m-3-6q.31 0 .54-.23T6.77 7t-.23-.54T6 6.23t-.54.23t-.23.54t.23.54t.54.23m3 0q.31 0 .54-.23T9.77 7t-.23-.54T9 6.23t-.54.23t-.23.54t.23.54t.54.23m3 0q.31 0 .54-.23t.23-.54t-.23-.54t-.54-.23t-.54.23t-.23.54t.23.54t.54.23m3 0q.31 0 .54-.23t.23-.54t-.23-.54t-.54-.23t-.54.23t-.23.54t.23.54t.54.23m3 0q.31 0 .54-.23t.23-.54t-.23-.54t-.54-.23t-.54.23t-.23.54t.23.54t.54.23m-12 3q.31 0 .54-.23t.23-.54t-.23-.54T6 9.23t-.54.23t-.23.54t.23.54t.54.23m3 0q.31 0 .54-.23t.23-.54t-.23-.54T9 9.23t-.54.23t-.23.54t.23.54t.54.23m3 0q.31 0 .54-.23t.23-.54t-.23-.54t-.54-.23t-.54.23t-.23.54t.23.54t.54.23m3 0q.31 0 .54-.23t.23-.54t-.23-.54t-.54-.23t-.54.23t-.23.54t.23.54t.54.23m3 0q.31 0 .54-.23t.23-.54t-.23-.54t-.54-.23t-.54.23t-.23.54t.23.54t.54.23"/></svg>
