<svg xmlns="http://www.w3.org/2000/svg" width="15px" height="15px" viewBox="0 0 512 512"><path fill="#fff" fill-rule="evenodd" d="M320 264.876v50.087c-13.093 11.72-21.333 28.75-21.333 47.704c0 35.346 28.653 64 64 64c35.346 0 64-28.654 64-64c0-18.954-8.24-35.984-21.332-47.703v-50.088c37.672 16.46 63.998 54.051 63.998 97.79c0 58.911-47.756 106.667-106.666 106.667S256 421.577 256 362.667c0-43.74 26.327-81.331 64-97.791M213.333 64v149.333h-42.666l-.003-79.898c-38.686 26.986-63.997 71.82-63.997 122.565c0 77.656 59.274 141.468 135.046 148.657c5.564 16.03 14.225 30.611 25.27 43.034Q261.53 448 256 448c-106.039 0-192-85.961-192-192c0-60.316 27.813-114.136 71.313-149.335L64 106.667V64zM384 234.667v128h-42.667v-128zM279.818 65.463C374.618 77.193 448 158.026 448 256q0 5.53-.314 10.98c-12.418-11.042-27-19.703-43.027-25.266c-6.61-69.652-61.063-125.364-130.134-133.91Z"/></svg>
