<svg width="513" height="512" viewBox="0 0 513 512" fill="none" xmlns="http://www.w3.org/2000/svg">
<g clip-path="url(#clip0_104_12)">
<path d="M344.141 116H169.141L151.641 221H361.641L344.141 116ZM81.6406 256C81.6406 256 116.641 273.5 256.641 273.5C396.641 273.5 431.641 256 431.641 256L361.641 221H151.641L81.6406 256ZM221.641 326H291.641V343.5H221.641V326Z" fill="white"/>
<path d="M186.641 396C215.636 396 239.141 372.495 239.141 343.5C239.141 314.505 215.636 291 186.641 291C157.646 291 134.141 314.505 134.141 343.5C134.141 372.495 157.646 396 186.641 396Z" fill="white"/>
<path d="M326.641 396C355.636 396 379.141 372.495 379.141 343.5C379.141 314.505 355.636 291 326.641 291C297.646 291 274.141 314.505 274.141 343.5C274.141 372.495 297.646 396 326.641 396Z" fill="white"/>
</g>
<defs>
<clipPath id="clip0_104_12">
<rect width="350" height="350" fill="white" transform="translate(81.6406 81)"/>
</clipPath>
</defs>
</svg>
