<svg width="15" height="15" viewBox="0 0 15 15" fill="none" xmlns="http://www.w3.org/2000/svg">
<g clip-path="url(#clip0_115_2)">
<path fill-rule="evenodd" clip-rule="evenodd" d="M2.84812 6.54875C2.84812 6.58312 2.85125 6.605 2.86375 6.6175C2.87375 6.62917 2.89167 6.63458 2.9175 6.63375H2.95812C2.97687 6.63375 2.99563 6.63063 3.00813 6.63063H4.2C4.46667 6.63063 4.68021 6.57708 4.84062 6.47C4.99812 6.36375 5.08 6.19688 5.08 5.97063C5.08278 5.89899 5.06952 5.82764 5.04119 5.76179C5.01286 5.69593 4.97017 5.63724 4.91625 5.59C4.80625 5.49667 4.65542 5.43604 4.46375 5.40812C4.80937 5.33937 4.98563 5.15375 4.98563 4.855C4.98563 4.66083 4.90708 4.51521 4.75 4.41812C4.5925 4.32437 4.38875 4.27375 4.1375 4.27375H2.94187C2.92625 4.27375 2.91687 4.27063 2.91062 4.27063C2.88562 4.27063 2.86688 4.27687 2.86063 4.28937C2.85063 4.30187 2.84812 4.32375 2.84812 4.35813V4.4625C2.84812 4.48708 2.85104 4.50063 2.85687 4.50313C2.86312 4.50938 2.88187 4.50938 2.91312 4.50938H3.14937C3.16812 4.50938 3.1775 4.51562 3.18375 4.52187C3.19 4.52812 3.19313 4.54688 3.19313 4.57188V6.25625C3.19313 6.325 3.18688 6.36604 3.17438 6.37937C3.16188 6.39187 3.12438 6.395 3.05813 6.395H2.9075C2.87875 6.395 2.86375 6.40125 2.8575 6.4075C2.85083 6.41625 2.8475 6.43917 2.8475 6.47625L2.84812 6.54875ZM3.61812 5.16937C3.61812 5.22562 3.62125 5.26063 3.63375 5.27313C3.64375 5.28813 3.66792 5.29542 3.70625 5.295H4.13625C4.40688 5.295 4.545 5.16625 4.545 4.9025C4.545 4.64125 4.40688 4.50938 4.13625 4.50938H3.70937C3.665 4.50938 3.63688 4.51562 3.63063 4.525C3.62188 4.53458 3.61771 4.56292 3.61812 4.61V5.16937ZM4.16813 6.395H3.725C3.67812 6.395 3.64937 6.39188 3.63687 6.38188C3.62437 6.37229 3.61812 6.35146 3.61812 6.31938V5.64687C3.61812 5.59687 3.62125 5.56187 3.63375 5.54937C3.64292 5.53687 3.66479 5.53062 3.69938 5.53062H4.16813C4.28282 5.52578 4.39538 5.56264 4.485 5.63438C4.56667 5.70396 4.6075 5.81083 4.6075 5.955C4.6075 6.1025 4.56375 6.2125 4.48187 6.285C4.39584 6.36152 4.28311 6.40105 4.16813 6.395Z" fill="white"/>
<path d="M6.55562 6.58938C6.55562 6.61125 6.55875 6.62687 6.57125 6.63312C6.58062 6.64312 6.6025 6.64563 6.6375 6.64563H6.7225C6.74125 6.64563 6.76 6.64562 6.7725 6.64312C6.78589 6.64085 6.79818 6.63426 6.8075 6.62437C6.81375 6.61437 6.82 6.60604 6.82625 6.59937C6.83 6.59354 6.83521 6.58292 6.84187 6.5675C6.8467 6.55434 6.85299 6.54176 6.86063 6.53C6.88271 6.48833 6.89833 6.4675 6.9075 6.4675C6.91292 6.46792 6.93292 6.47937 6.9675 6.50187C7.115 6.62062 7.30375 6.67687 7.53313 6.67687C7.80313 6.67687 8.02292 6.61438 8.1925 6.48938C8.27385 6.43023 8.33938 6.35197 8.38331 6.2615C8.42723 6.17102 8.44821 6.07113 8.44438 5.97063C8.44661 5.85273 8.41955 5.73612 8.36563 5.63125C8.31996 5.54269 8.25158 5.46784 8.1675 5.41438C8.08132 5.36264 7.98973 5.32052 7.89437 5.28875C7.7961 5.2542 7.69643 5.22375 7.59562 5.1975C7.50409 5.17429 7.41395 5.14591 7.32562 5.1125C7.24881 5.08558 7.17972 5.04031 7.12438 4.98063C7.07352 4.92126 7.04676 4.845 7.04938 4.76687C7.04938 4.67354 7.08687 4.60021 7.16187 4.54688C7.23729 4.49312 7.35062 4.46604 7.50187 4.46562C7.63021 4.46604 7.75063 4.50271 7.86313 4.57562C7.97086 4.64432 8.05096 4.74876 8.08937 4.87063C8.08979 4.87979 8.09187 4.90188 8.09562 4.93688C8.09756 4.96397 8.10389 4.99057 8.11438 5.01562C8.12104 5.03437 8.13562 5.04375 8.15812 5.04375H8.27437C8.30479 5.04417 8.32479 5.03687 8.33438 5.02187C8.34619 5.00075 8.35162 4.97665 8.35 4.9525V4.3425C8.35027 4.32303 8.34599 4.30377 8.3375 4.28625C8.33125 4.28 8.3125 4.27375 8.28375 4.27375H8.22125C8.1895 4.27206 8.15767 4.27522 8.12687 4.28312C8.11146 4.28937 8.09563 4.305 8.07938 4.33L8.04813 4.38C8.02313 4.41813 8.0075 4.43375 7.99813 4.43375C7.99188 4.43375 7.97 4.42125 7.93188 4.39C7.78707 4.28977 7.61418 4.23812 7.43813 4.2425C7.2125 4.2425 7.02687 4.29563 6.87625 4.4025C6.72562 4.50938 6.65313 4.66625 6.65313 4.87375C6.65313 4.99875 6.67813 5.10354 6.72813 5.18812C6.7741 5.27179 6.84307 5.34054 6.92688 5.38625C7.00813 5.43 7.09563 5.4675 7.19688 5.49875C7.29396 5.53042 7.39229 5.55875 7.49188 5.58375C7.58938 5.60875 7.6775 5.64062 7.75938 5.67188C7.84063 5.70688 7.90687 5.75312 7.95687 5.81625C8.00687 5.87937 8.03563 5.95813 8.03563 6.04875C8.03704 6.10398 8.02623 6.15884 8.00397 6.2094C7.98171 6.25997 7.94856 6.30499 7.90688 6.34125C7.82188 6.41625 7.68687 6.45396 7.50187 6.45437C7.34594 6.45794 7.19328 6.40933 7.06812 6.31625C6.94696 6.23492 6.85807 6.11375 6.81687 5.97375C6.80951 5.95153 6.8053 5.92839 6.80438 5.905C6.80146 5.8725 6.79396 5.85146 6.78187 5.84188C6.7602 5.83257 6.73669 5.8283 6.71313 5.82937H6.62812C6.59729 5.82937 6.57729 5.8325 6.56812 5.83875C6.55937 5.845 6.55521 5.8575 6.55562 5.87625V5.90437C6.55562 5.91687 6.55875 5.92938 6.55875 5.93563V6.52062C6.55875 6.53312 6.55562 6.54563 6.55562 6.55813V6.58938Z" fill="white"/>
<path fill-rule="evenodd" clip-rule="evenodd" d="M9.97437 4.4375C9.97437 4.475 9.9775 4.49375 9.98375 4.5C9.99 4.50625 10.0087 4.50938 10.0462 4.50938H10.21C10.26 4.50979 10.2913 4.515 10.3038 4.525C10.3142 4.53458 10.3196 4.55958 10.32 4.6V6.29688C10.32 6.31625 10.3231 6.32875 10.3231 6.335C10.3227 6.37542 10.3019 6.39542 10.2606 6.395H10.0369C10.0056 6.395 9.99 6.40125 9.98375 6.4075C9.9775 6.41375 9.97437 6.43563 9.97437 6.47313V6.53562C9.97437 6.58021 9.9775 6.60771 9.98375 6.61812C9.99 6.62687 10.0119 6.63104 10.0494 6.63063H11.0744C11.1119 6.63104 11.1337 6.62687 11.14 6.61812C11.1462 6.61187 11.1525 6.58688 11.1525 6.5425V6.44187C11.1525 6.4075 11.1306 6.38875 11.0931 6.38875C11.0838 6.38875 11.0706 6.39188 11.0519 6.39188C11.0327 6.39438 11.0181 6.39542 11.0081 6.395H10.845C10.7975 6.395 10.7692 6.39187 10.76 6.38562C10.7475 6.37937 10.7444 6.35688 10.7444 6.31938V5.6875C10.7444 5.64312 10.7631 5.62125 10.8069 5.62125C10.8131 5.62125 10.8256 5.62437 10.8444 5.62437H11.1525C11.4419 5.62437 11.6587 5.56188 11.8087 5.4325C11.9575 5.30333 12.0321 5.13167 12.0325 4.9175C12.0325 4.71 11.9575 4.55313 11.8125 4.44C11.6679 4.32917 11.4479 4.27354 11.1525 4.27312H10.1219C10.1094 4.27312 10.0969 4.27312 10.0781 4.27C10.0594 4.27 10.0431 4.26688 10.0369 4.26688C9.99312 4.26688 9.97437 4.28562 9.97437 4.32312V4.4375ZM11.1525 5.38875H10.845C10.7954 5.38875 10.7656 5.38313 10.7569 5.37063C10.7475 5.3575 10.7444 5.32312 10.7444 5.26062V4.58437C10.7444 4.55 10.7475 4.52812 10.76 4.52187C10.7694 4.51562 10.7975 4.50938 10.845 4.50938H11.1525C11.4231 4.50938 11.5606 4.6475 11.5606 4.91813C11.5606 5.0625 11.5231 5.17875 11.4544 5.26375C11.3848 5.3475 11.2842 5.38917 11.1525 5.38875Z" fill="white"/>
<path d="M13.205 7.5C13.2051 7.4857 13.2023 7.47152 13.1969 7.45829C13.1915 7.44505 13.1834 7.43303 13.1733 7.42292C13.1632 7.4128 13.1512 7.4048 13.138 7.39936C13.1247 7.39392 13.1106 7.39117 13.0963 7.39125H9.36188V1.90375C9.36188 1.87499 9.35045 1.84741 9.33011 1.82707C9.30978 1.80674 9.2822 1.79531 9.25344 1.79531C9.22468 1.79531 9.1971 1.80674 9.17676 1.82707C9.15642 1.84741 9.145 1.87499 9.145 1.90375V7.39125H5.80875V1.90375C5.80875 1.87491 5.79729 1.84725 5.7769 1.82685C5.7565 1.80646 5.72884 1.795 5.7 1.795C5.67116 1.795 5.6435 1.80646 5.6231 1.82685C5.60271 1.84725 5.59125 1.87491 5.59125 1.90375V7.39125H1.90375C1.87491 7.39125 1.84725 7.40271 1.82685 7.4231C1.80646 7.4435 1.795 7.47116 1.795 7.5C1.795 7.52884 1.80646 7.5565 1.82685 7.5769C1.84725 7.59729 1.87491 7.60875 1.90375 7.60875H7.39125V13.0963C7.39125 13.1251 7.40271 13.1528 7.4231 13.1731C7.4435 13.1935 7.47116 13.205 7.5 13.205C7.52884 13.205 7.5565 13.1935 7.5769 13.1731C7.59729 13.1528 7.60875 13.1251 7.60875 13.0963V7.60875H13.0963C13.1105 7.60875 13.1246 7.60593 13.1378 7.60046C13.1509 7.59499 13.1629 7.58697 13.1729 7.57686C13.183 7.56675 13.1909 7.55476 13.1963 7.54157C13.2017 7.52838 13.2051 7.51425 13.205 7.5Z" fill="white"/>
<path d="M10.4675 9.8775C10.4675 9.86083 10.4642 9.84958 10.4575 9.84375C10.4421 9.83791 10.4258 9.83515 10.4094 9.83563H10.3C10.2667 9.83563 10.2458 9.83083 10.2375 9.82125C10.2271 9.81042 10.2221 9.79208 10.2225 9.76625V9.69938L10.1869 8.8025L10.185 8.77375V8.74875C10.185 8.72958 10.1892 8.7175 10.1975 8.7125C10.2185 8.706 10.2405 8.70325 10.2625 8.70438H10.3212C10.3608 8.70521 10.3846 8.70167 10.3925 8.69375C10.4008 8.68792 10.405 8.66625 10.405 8.62875V8.55125C10.405 8.52417 10.4008 8.50604 10.3925 8.49687C10.3876 8.49202 10.3817 8.48823 10.3753 8.48576C10.3688 8.48328 10.3619 8.48217 10.355 8.4825L10.325 8.48438H9.785C9.76667 8.48379 9.74835 8.48589 9.73063 8.49063C9.7171 8.49433 9.70521 8.50247 9.69688 8.51375C9.68938 8.525 9.68375 8.53479 9.68 8.54313C9.67375 8.55567 9.66893 8.56888 9.66562 8.5825L9.65312 8.62625L9.47875 9.1C9.4325 9.22333 9.39833 9.32667 9.37625 9.41C9.35542 9.4875 9.33875 9.52604 9.32625 9.52563C9.31375 9.52646 9.29833 9.48521 9.28 9.40188C9.25252 9.29475 9.22188 9.18845 9.18813 9.08313L9.01625 8.53438C9.01075 8.51891 9.00225 8.50468 8.99125 8.4925C8.97512 8.48632 8.95788 8.48356 8.94063 8.48438H8.31437C8.30021 8.48396 8.29104 8.48333 8.28687 8.4825C8.26854 8.4825 8.25542 8.48667 8.2475 8.495C8.23875 8.50312 8.23687 8.52188 8.23687 8.54688V8.65C8.23687 8.675 8.23875 8.69188 8.2475 8.69563C8.25333 8.70146 8.27271 8.70438 8.30562 8.70438H8.4025C8.42833 8.70479 8.44563 8.7075 8.45438 8.7125C8.46271 8.71917 8.46688 8.72896 8.46688 8.74188L8.46313 8.8025L8.41937 9.72437V9.77687C8.41937 9.79812 8.41521 9.81354 8.40688 9.82312C8.39854 9.83146 8.38167 9.83563 8.35625 9.83563H8.25125C8.21333 9.83563 8.19104 9.83896 8.18437 9.84562C8.17687 9.85146 8.17333 9.87104 8.17375 9.90438V10.0006C8.17333 10.0231 8.17687 10.0385 8.18437 10.0469C8.19021 10.0548 8.20146 10.0583 8.21813 10.0575H8.24125L8.2725 10.0556H8.83813C8.86271 10.0556 8.87875 10.0527 8.88625 10.0469C8.8925 10.0431 8.89687 10.03 8.89687 10.0138V9.87938C8.89687 9.86021 8.89479 9.84833 8.89062 9.84375C8.88354 9.83811 8.87467 9.83523 8.86563 9.83563H8.7375C8.70375 9.83604 8.68146 9.8325 8.67062 9.825C8.65896 9.8175 8.65333 9.80417 8.65375 9.785L8.65563 9.74938L8.66 9.71187L8.67688 9.25562L8.67875 9.12938C8.67875 9.04604 8.68083 8.97271 8.685 8.90938C8.68708 8.84688 8.69125 8.81562 8.6975 8.81562C8.70667 8.81562 8.72417 8.85729 8.75 8.94063C8.77292 9.01688 8.80854 9.12875 8.85687 9.27625L9.1 10.0175C9.10833 10.0467 9.11813 10.0635 9.12938 10.0681C9.13771 10.074 9.15854 10.0767 9.19187 10.0763H9.34937C9.36604 10.0771 9.38063 10.0738 9.39313 10.0663C9.40231 10.06 9.40964 10.0513 9.41438 10.0413C9.42002 10.0284 9.42422 10.015 9.42688 10.0013C9.43021 9.98458 9.43354 9.97208 9.43688 9.96375L9.69312 9.205C9.70521 9.16917 9.72667 9.09229 9.7575 8.97437C9.77833 8.88979 9.79292 8.84729 9.80125 8.84688C9.80542 8.84729 9.80958 8.87313 9.81375 8.92438C9.81625 8.97646 9.81833 9.03937 9.82 9.11312L9.8225 9.22188L9.83937 9.71187C9.83937 9.72354 9.84 9.7375 9.84125 9.75375C9.84208 9.77042 9.84292 9.78083 9.84375 9.785C9.84375 9.80333 9.83812 9.81667 9.82687 9.825C9.81687 9.83292 9.79729 9.83646 9.76812 9.83563H9.66813C9.63688 9.83604 9.61708 9.83958 9.60875 9.84625C9.60125 9.85208 9.59771 9.86521 9.59813 9.88562V10.0094C9.59813 10.0302 9.60104 10.0435 9.60688 10.0494C9.61271 10.0552 9.62312 10.0579 9.63812 10.0575H9.66125L9.68875 10.0556H10.3963C10.4292 10.0556 10.4496 10.0527 10.4575 10.0469C10.4642 10.0427 10.4675 10.0267 10.4675 9.99875V9.8775Z" fill="white"/>
<path d="M6.92312 8.54875C6.92312 8.5175 6.91979 8.49875 6.91313 8.4925C6.8939 8.48481 6.87307 8.48202 6.8525 8.48438H6.32875C6.29125 8.48438 6.26958 8.48854 6.26375 8.49687C6.25625 8.50521 6.25271 8.53021 6.25313 8.57187V8.6375C6.25313 8.66875 6.25729 8.6875 6.26562 8.69375C6.27396 8.70125 6.29771 8.70479 6.33687 8.70438C6.36928 8.70394 6.40167 8.70603 6.43375 8.71062C6.44833 8.71437 6.45583 8.72208 6.45625 8.73375C6.45625 8.73958 6.44875 8.76542 6.43375 8.81125L6.28875 9.22563C6.26292 9.29688 6.23292 9.385 6.19875 9.49C6.17292 9.56292 6.1575 9.59917 6.1525 9.59875C6.14667 9.59875 6.13146 9.55188 6.10687 9.45813C6.08737 9.38877 6.06653 9.3198 6.04437 9.25125L5.88687 8.77375C5.88118 8.75805 5.8776 8.74165 5.87625 8.725C5.87625 8.7125 5.89063 8.70438 5.92438 8.70438H5.9725C6.00333 8.70438 6.02292 8.70167 6.03125 8.69625C6.03958 8.69208 6.04375 8.67729 6.04375 8.65188V8.53438C6.04375 8.51438 6.03958 8.50042 6.03125 8.4925C6.02313 8.48438 6.00813 8.48 5.99125 8.48L5.95813 8.48188C5.94188 8.48396 5.93 8.48479 5.9225 8.48438H5.38375C5.37125 8.48438 5.365 8.48188 5.36062 8.48188C5.34021 8.48188 5.32708 8.48604 5.32125 8.49438C5.31333 8.50354 5.30979 8.52313 5.31063 8.55313V8.61563L5.30875 8.64313V8.66625C5.30833 8.68125 5.31104 8.69104 5.31687 8.69563C5.32271 8.70146 5.33604 8.70438 5.35687 8.70438H5.42562C5.45896 8.70438 5.47979 8.71479 5.48812 8.73563L5.50562 8.77938C5.51055 8.7929 5.51391 8.80695 5.51562 8.82125C5.51563 8.83042 5.50937 8.85 5.49687 8.88L5.315 9.3075C5.30625 9.33042 5.29229 9.36375 5.27313 9.4075C5.25188 9.45438 5.24188 9.48125 5.2375 9.49C5.21417 9.54 5.20021 9.565 5.19562 9.565C5.18646 9.565 5.17729 9.55042 5.16813 9.52125C5.15246 9.48039 5.13787 9.43913 5.12438 9.3975C5.10771 9.34667 5.09646 9.31042 5.09063 9.28875L4.925 8.8175L4.9125 8.78375L4.89812 8.7525C4.89544 8.74573 4.89396 8.73853 4.89375 8.73125C4.89333 8.71375 4.91771 8.70479 4.96688 8.70438H5.05125C5.07417 8.70438 5.08813 8.70146 5.09313 8.69563C5.09984 8.67833 5.10261 8.65975 5.10125 8.64125V8.54125C5.10083 8.51792 5.09729 8.5025 5.09063 8.495C5.08628 8.49072 5.08109 8.4874 5.07538 8.48525C5.06968 8.4831 5.06359 8.48216 5.0575 8.4825C5.05333 8.48333 5.045 8.48396 5.0325 8.48438H4.36125C4.34625 8.48438 4.33625 8.48188 4.33188 8.48188C4.29813 8.48188 4.28375 8.50063 4.28375 8.53438V8.64563C4.28292 8.67479 4.28625 8.69146 4.29375 8.69563C4.3 8.70146 4.32104 8.70438 4.35687 8.70438H4.41937C4.43364 8.704 4.4479 8.70526 4.46187 8.70813C4.47187 8.71021 4.48083 8.71437 4.48875 8.72062C4.495 8.72937 4.49938 8.73312 4.50125 8.7375C4.5056 8.74698 4.50916 8.75681 4.51188 8.76688C4.51625 8.78188 4.51813 8.79187 4.5225 8.79812L4.95813 9.99875L4.96625 10.0262L4.975 10.0494C4.97542 10.0531 4.97896 10.0579 4.98563 10.0637C4.98795 10.0671 4.99104 10.0697 4.99463 10.0716C4.99822 10.0735 5.00221 10.0744 5.00625 10.0744C5.01804 10.0761 5.02997 10.0768 5.04188 10.0763H5.13562C5.14854 10.0763 5.16063 10.0756 5.17188 10.0744L5.19687 10.0719C5.20463 10.0714 5.21205 10.0686 5.21812 10.0637L5.23063 10.055C5.23396 10.0533 5.23729 10.0485 5.24063 10.0406C5.24479 10.0348 5.24771 10.0298 5.24938 10.0256L5.2575 10.005C5.26125 9.99458 5.26479 9.98625 5.26813 9.98L5.49 9.45187C5.49875 9.43125 5.53187 9.34313 5.595 9.18813C5.61625 9.13813 5.62875 9.11062 5.63688 9.11062C5.645 9.11062 5.66 9.14437 5.67688 9.20687C5.70172 9.29851 5.73177 9.38866 5.76688 9.47688L5.95937 9.98625L5.97 10.0175C5.9721 10.0277 5.97546 10.0375 5.98 10.0469L5.995 10.0612C5.99815 10.0655 6.00233 10.0689 6.00714 10.071C6.01195 10.0732 6.01723 10.0742 6.0225 10.0737C6.0325 10.0758 6.04708 10.0767 6.06625 10.0763H6.14125C6.16042 10.0771 6.17667 10.0756 6.19 10.0719C6.20009 10.0704 6.20995 10.0676 6.21938 10.0637C6.22729 10.0617 6.23417 10.056 6.24 10.0469L6.2525 10.0238C6.25695 10.0137 6.26051 10.0032 6.26312 9.9925C6.26646 9.97583 6.27 9.96333 6.27375 9.955L6.67813 8.78625L6.695 8.73375C6.70091 8.72581 6.70862 8.71938 6.7175 8.715C6.73837 8.70765 6.76038 8.70405 6.7825 8.70438H6.87063C6.88546 8.70491 6.90028 8.70279 6.91437 8.69812C6.91937 8.69396 6.92229 8.68354 6.92312 8.66687V8.54875Z" fill="white"/>
</g>
<defs>
<clipPath id="clip0_115_2">
<rect width="15" height="15" fill="white"/>
</clipPath>
</defs>
</svg>
